<svg width="260" height="40" viewBox="0 0 260 40" fill="none" xmlns="http://www.w3.org/2000/svg">
<path fill-rule="evenodd" clip-rule="evenodd" d="M8.34355 7.21955C8.28856 8.73801 8.5753 11.4264 12.597 14.6048C15.9864 17.2837 18.9818 20.2538 19.8785 24.0303C20.6747 27.3821 20.1697 37.0742 13.9864 33.5777C10.9635 31.869 6.82901 28.6323 7.08433 23.816C7.08433 23.816 7.21283 22.5787 6.63148 22.5293C6.05182 22.4799 4.6557 28.9623 10.619 34.0967C16.5806 39.2312 26.1134 38.2952 29.9426 35.2746C29.9426 35.2746 30.7029 34.6051 30.9398 34.7011C31.0458 34.7426 30.8606 35.4216 29.9005 36.1331C11.4113 49.8397 -12.1949 24.0326 7.3391 6.68083C8.76216 5.41713 8.38957 5.94799 8.34355 7.21955Z" fill="#163A34"/>
<path fill-rule="evenodd" clip-rule="evenodd" d="M22.673 1.43301C22.8968 3.15517 22.8581 6.22014 18.631 10.0427C17.5755 10.9972 16.5621 11.9786 15.6424 13.001C15.5705 13.0953 14.8697 14.0751 15.8999 15.2535C16.8735 16.3685 23.7094 22.6039 21.9076 28.3815C21.4042 29.997 22.2252 29.2137 22.6898 28.7344C24.7756 26.5824 26.3877 23.7183 25.8704 20.2089C25.8704 20.2089 25.5943 18.8111 26.2474 18.723C26.9012 18.6372 29.1755 25.9225 22.9547 32.0676C22.2976 32.7163 21.5871 33.2898 20.8391 33.7932C20.8391 33.7932 20.5485 34.1428 20.8419 34.42C20.9042 34.4789 21.3543 34.6158 21.9283 34.3582C37.8261 27.2092 36.214 10.4461 23.7554 0.768057C22.0058 -0.590477 22.4855 -0.00800906 22.673 1.43301Z" fill="#FE9F6B"/>
<path d="M45.2956 26C45.0023 26 44.8556 25.8867 44.8556 25.66V25.6C44.8556 25.4667 44.9823 25.26 45.2356 24.98C45.4889 24.6867 45.6156 24.3867 45.6156 24.08V13.72C45.6156 13.4133 45.4889 13.12 45.2356 12.84C44.9823 12.5467 44.8556 12.3333 44.8556 12.2V12.12C44.8556 11.9067 45.0023 11.8 45.2956 11.8H49.0356C49.3423 11.8 49.4956 11.9067 49.4956 12.12V12.2C49.4956 12.3333 49.3556 12.5467 49.0756 12.84C48.7956 13.12 48.6556 13.4133 48.6556 13.72V18.16H54.7756V13.72C54.7756 13.4133 54.6489 13.12 54.3956 12.84C54.1423 12.5467 54.0156 12.3333 54.0156 12.2V12.12C54.0156 11.9067 54.1623 11.8 54.4556 11.8H58.1956C58.5023 11.8 58.6556 11.9067 58.6556 12.12V12.2C58.6556 12.3333 58.5089 12.5467 58.2156 12.84C57.9356 13.12 57.7956 13.4133 57.7956 13.72V24.08C57.7956 24.3867 57.9356 24.6867 58.2156 24.98C58.5089 25.26 58.6556 25.4667 58.6556 25.6V25.66C58.6556 25.8867 58.5023 26 58.1956 26H54.4556C54.1623 26 54.0156 25.8867 54.0156 25.66V25.6C54.0156 25.4667 54.1423 25.26 54.3956 24.98C54.6489 24.6867 54.7756 24.3867 54.7756 24.08V19.48H48.6556L48.6356 24.08C48.6356 24.3867 48.7756 24.6867 49.0556 24.98C49.3489 25.26 49.4956 25.4667 49.4956 25.6V25.66C49.4956 25.8867 49.3423 26 49.0356 26H45.2956ZM67.909 22.96C68.029 22.8 68.1757 22.7467 68.349 22.8C68.5224 22.8533 68.6024 22.98 68.589 23.18C68.5224 23.8733 68.1224 24.5533 67.389 25.22C66.6557 25.8733 65.7024 26.2 64.529 26.2C63.1157 26.2 61.9557 25.7333 61.049 24.8C60.1424 23.8667 59.689 22.64 59.689 21.12C59.689 19.6933 60.1624 18.52 61.109 17.6C62.0557 16.6667 63.1957 16.2 64.529 16.2C65.7424 16.2 66.6757 16.4867 67.329 17.06C67.9824 17.6333 68.309 18.2933 68.309 19.04C68.309 19.6533 68.0157 20.0933 67.429 20.36L62.989 22.38C63.5357 23.54 64.4157 24.12 65.629 24.12C66.1357 24.12 66.589 24.0133 66.989 23.8C67.4024 23.5733 67.709 23.2933 67.909 22.96ZM64.169 17.08C63.649 17.08 63.2357 17.3333 62.929 17.84C62.6224 18.3333 62.469 18.9667 62.469 19.74C62.469 20.3933 62.5357 20.9667 62.669 21.46L65.249 20.16C65.5957 19.9867 65.769 19.6733 65.769 19.22C65.769 18.7667 65.6224 18.3 65.329 17.82C65.0357 17.3267 64.649 17.08 64.169 17.08ZM78.6532 24C78.6932 24.3067 78.7666 24.5533 78.8732 24.74C78.9932 24.9267 79.1132 25.0467 79.2332 25.1C79.3532 25.14 79.4599 25.1933 79.5532 25.26C79.6466 25.3267 79.6932 25.42 79.6932 25.54C79.6932 25.9267 79.0532 26.12 77.7732 26.12C77.1866 26.12 76.7532 26.0467 76.4732 25.9C76.2066 25.74 76.0466 25.4533 75.9932 25.04C75.4732 25.8133 74.5866 26.2 73.3332 26.2C72.2132 26.2 71.3066 25.94 70.6132 25.42C69.9199 24.9 69.5732 24.1533 69.5732 23.18C69.5599 22.22 69.8999 21.4733 70.5932 20.94C71.2866 20.4067 72.1532 20.14 73.1932 20.14C74.0732 20.14 74.7999 20.34 75.3732 20.74L75.3532 20.5C75.2199 19.2333 75.0332 18.34 74.7932 17.82C74.5532 17.3 74.1466 17.04 73.5732 17.04C73.2132 17.04 72.9199 17.1733 72.6932 17.44C72.4666 17.7067 72.3066 18 72.2132 18.32C72.1199 18.64 71.9666 18.9333 71.7532 19.2C71.5399 19.4667 71.2666 19.6 70.9332 19.6C70.5732 19.6 70.2799 19.5 70.0532 19.3C69.8399 19.0867 69.7332 18.8133 69.7332 18.48C69.7332 17.7867 70.0999 17.2333 70.8332 16.82C71.5799 16.4067 72.4932 16.2 73.5732 16.2C74.8666 16.2 75.9266 16.5667 76.7532 17.3C77.5799 18.0333 78.0666 19.0333 78.2132 20.3L78.6532 24ZM74.2132 25.32C74.6532 25.32 75.0066 25.14 75.2732 24.78C75.5399 24.4067 75.6599 23.9867 75.6332 23.52L75.5732 22.82C75.5199 22.2467 75.3466 21.8067 75.0532 21.5C74.7732 21.1933 74.4199 21.04 73.9932 21.04C73.5666 21.04 73.2132 21.1933 72.9332 21.5C72.6666 21.8067 72.5332 22.2133 72.5332 22.72C72.5332 23.44 72.6866 24.0533 72.9932 24.56C73.3132 25.0667 73.7199 25.32 74.2132 25.32ZM80.6959 26C80.3892 26 80.2359 25.8867 80.2359 25.66V25.58C80.2359 25.4467 80.3626 25.24 80.6159 24.96C80.8826 24.68 81.0159 24.3867 81.0159 24.08V14.24C81.0159 13.8933 80.8826 13.58 80.6159 13.3C80.3626 13.02 80.2359 12.8267 80.2359 12.72V12.64C80.2359 12.48 80.3692 12.3467 80.6359 12.24L83.1559 11C83.4226 10.8933 83.6226 10.88 83.7559 10.96C83.9026 11.04 83.9759 11.1733 83.9759 11.36V24.08C83.9759 24.3867 84.1159 24.68 84.3959 24.96C84.6892 25.24 84.8359 25.4467 84.8359 25.58V25.66C84.8359 25.8867 84.6826 26 84.3759 26H80.6959ZM89.8614 26.2C88.928 26.2 88.188 25.9067 87.6414 25.32C87.108 24.72 86.8414 23.86 86.8414 22.74V17.56H85.9014C85.6347 17.56 85.5014 17.4267 85.5014 17.16V16.82C85.5014 16.54 85.6347 16.4 85.9014 16.4H86.4014C86.948 16.4 87.408 16.22 87.7814 15.86C88.168 15.5 88.4147 15.02 88.5214 14.42C88.588 14.1 88.7414 13.94 88.9814 13.94H89.3814C89.6747 13.94 89.8214 14.1 89.8214 14.42L89.8414 16.4H92.1414C92.248 16.4 92.3414 16.44 92.4214 16.52C92.5014 16.6 92.5414 16.7 92.5414 16.82V17.16C92.5414 17.28 92.5014 17.38 92.4214 17.46C92.3414 17.5267 92.248 17.56 92.1414 17.56H89.8414V22.78C89.8414 23.1667 89.9347 23.48 90.1214 23.72C90.3214 23.9467 90.568 24.06 90.8614 24.06C91.5547 24.06 92.008 23.76 92.2214 23.16C92.3414 22.9867 92.488 22.92 92.6614 22.96C92.848 22.9867 92.9414 23.0933 92.9414 23.28C92.9414 24.0533 92.6614 24.7333 92.1014 25.32C91.5547 25.9067 90.808 26.2 89.8614 26.2ZM103.895 24.04C103.922 24.36 104.049 24.66 104.275 24.94C104.502 25.22 104.615 25.4333 104.615 25.58V25.66C104.615 25.8867 104.469 26 104.175 26H100.695C100.402 26 100.255 25.8867 100.255 25.66V25.58C100.255 25.4467 100.375 25.24 100.615 24.96C100.869 24.68 100.989 24.38 100.975 24.06L100.775 20.22C100.682 18.3 100.102 17.34 99.0353 17.34C98.5019 17.34 98.0819 17.54 97.7753 17.94C97.4819 18.34 97.3353 18.8733 97.3353 19.54V24.08C97.3353 24.3867 97.4753 24.68 97.7553 24.96C98.0486 25.24 98.1953 25.4467 98.1953 25.58V25.66C98.1953 25.8867 98.0353 26 97.7153 26H94.0153C93.7086 26 93.5553 25.8867 93.5553 25.66V25.58C93.5553 25.4467 93.6953 25.24 93.9753 24.96C94.2553 24.68 94.3953 24.3867 94.3953 24.08V14.12C94.3953 13.8 94.2419 13.5133 93.9353 13.26C93.6419 13.0067 93.4953 12.8133 93.4953 12.68V12.62C93.4953 12.42 93.6286 12.2533 93.8953 12.12L96.5353 10.96C96.7619 10.8667 96.9353 10.8533 97.0553 10.92C97.1886 10.9867 97.2553 11.12 97.2553 11.32L97.2353 17.32C97.8619 16.5733 98.7353 16.2 99.8553 16.2C100.869 16.2 101.729 16.5333 102.435 17.2C103.142 17.8533 103.542 18.8867 103.635 20.3L103.895 24.04ZM115.102 16.4C115.368 16.4 115.502 16.5067 115.502 16.72V16.82C115.502 16.9933 115.362 17.2267 115.082 17.52C114.815 17.8133 114.615 18.1 114.482 18.38L110.702 26.6C110.528 26.9867 110.382 27.3 110.262 27.54C110.142 27.78 109.955 28.0933 109.702 28.48C109.462 28.88 109.222 29.1933 108.982 29.42C108.742 29.6467 108.442 29.8467 108.082 30.02C107.722 30.1933 107.348 30.28 106.962 30.28C106.108 30.28 105.402 30.06 104.842 29.62C104.295 29.18 104.022 28.6867 104.022 28.14C104.022 27.78 104.128 27.4867 104.342 27.26C104.555 27.0467 104.848 26.94 105.222 26.94C105.595 26.94 105.888 27.06 106.102 27.3C106.315 27.5533 106.455 27.8333 106.522 28.14C106.588 28.4467 106.688 28.72 106.822 28.96C106.968 29.2133 107.155 29.34 107.382 29.34C107.995 29.34 108.682 28.4067 109.442 26.54L105.462 18.38C105.315 18.0867 105.095 17.8 104.802 17.52C104.522 17.2267 104.382 16.9933 104.382 16.82V16.72C104.382 16.5067 104.522 16.4 104.802 16.4H108.542C108.795 16.4 108.922 16.5133 108.922 16.74V16.82C108.922 16.94 108.862 17.08 108.742 17.24C108.622 17.3867 108.542 17.5267 108.502 17.66C108.462 17.7933 108.502 18.0467 108.622 18.42L110.962 23.84L113.122 18.7C113.255 18.2467 113.255 17.9333 113.122 17.76C112.988 17.5867 112.808 17.42 112.582 17.26C112.355 17.0867 112.242 16.94 112.242 16.82V16.74C112.242 16.5133 112.382 16.4 112.662 16.4H115.102ZM131.351 24.08C131.525 24.3467 131.731 24.58 131.971 24.78C132.225 24.9667 132.425 25.12 132.571 25.24C132.718 25.3467 132.791 25.4667 132.791 25.6V25.66C132.791 25.8867 132.638 26 132.331 26H128.151C127.858 26 127.711 25.8867 127.711 25.66V25.6C127.711 25.48 127.785 25.3467 127.931 25.2C128.091 25.04 128.198 24.9 128.251 24.78C128.318 24.6467 128.285 24.4133 128.151 24.08L126.051 20.6L123.851 20.64V24.08C123.851 24.3867 123.991 24.6867 124.271 24.98C124.565 25.26 124.711 25.4667 124.711 25.6V25.66C124.711 25.8867 124.551 26 124.231 26H120.471C120.178 26 120.031 25.8867 120.031 25.66V25.6C120.031 25.4667 120.158 25.26 120.411 24.98C120.665 24.6867 120.791 24.3867 120.791 24.08V13.72C120.791 13.4133 120.665 13.12 120.411 12.84C120.158 12.5467 120.031 12.3333 120.031 12.2V12.12C120.031 11.9067 120.178 11.8 120.471 11.8H125.411C127.265 11.8 128.731 12.18 129.811 12.94C130.905 13.7 131.458 14.8133 131.471 16.28C131.471 17.0933 131.231 17.8467 130.751 18.54C130.285 19.22 129.611 19.7467 128.731 20.12L131.351 24.08ZM124.971 19.42H125.831C126.591 19.42 127.198 19.1867 127.651 18.72C128.118 18.24 128.351 17.54 128.351 16.62C128.351 15.5267 128.031 14.6533 127.391 14C126.765 13.3467 126.038 13.02 125.211 13.02H124.531C124.078 13.02 123.851 13.32 123.851 13.92V18.08C123.851 18.56 123.938 18.9067 124.111 19.12C124.298 19.32 124.585 19.42 124.971 19.42ZM140.956 22.96C141.076 22.8 141.223 22.7467 141.396 22.8C141.569 22.8533 141.649 22.98 141.636 23.18C141.569 23.8733 141.169 24.5533 140.436 25.22C139.703 25.8733 138.749 26.2 137.576 26.2C136.163 26.2 135.003 25.7333 134.096 24.8C133.189 23.8667 132.736 22.64 132.736 21.12C132.736 19.6933 133.209 18.52 134.156 17.6C135.103 16.6667 136.243 16.2 137.576 16.2C138.789 16.2 139.723 16.4867 140.376 17.06C141.029 17.6333 141.356 18.2933 141.356 19.04C141.356 19.6533 141.063 20.0933 140.476 20.36L136.036 22.38C136.583 23.54 137.463 24.12 138.676 24.12C139.183 24.12 139.636 24.0133 140.036 23.8C140.449 23.5733 140.756 23.2933 140.956 22.96ZM137.216 17.08C136.696 17.08 136.283 17.3333 135.976 17.84C135.669 18.3333 135.516 18.9667 135.516 19.74C135.516 20.3933 135.583 20.9667 135.716 21.46L138.296 20.16C138.643 19.9867 138.816 19.6733 138.816 19.22C138.816 18.7667 138.669 18.3 138.376 17.82C138.083 17.3267 137.696 17.08 137.216 17.08ZM147.62 26.2C146.14 26.2 144.907 25.7067 143.92 24.72C142.947 23.7333 142.46 22.5533 142.46 21.18C142.46 19.6867 142.947 18.4867 143.92 17.58C144.907 16.6733 146.1 16.2133 147.5 16.2C148.647 16.1867 149.62 16.4533 150.42 17C151.233 17.5467 151.64 18.2133 151.64 19C151.64 19.2933 151.54 19.54 151.34 19.74C151.14 19.9267 150.827 20.0133 150.4 20C150.08 19.9867 149.8 19.8733 149.56 19.66C149.32 19.4467 149.12 19.2 148.96 18.92C148.813 18.64 148.66 18.36 148.5 18.08C148.34 17.8 148.14 17.5667 147.9 17.38C147.66 17.18 147.38 17.08 147.06 17.08C146.5 17.08 146.047 17.3333 145.7 17.84C145.367 18.3467 145.2 18.98 145.2 19.74C145.2 21.0733 145.507 22.14 146.12 22.94C146.747 23.74 147.573 24.14 148.6 24.14C149.653 24.14 150.453 23.6733 151 22.74C151.08 22.6333 151.173 22.5733 151.28 22.56C151.4 22.5333 151.5 22.56 151.58 22.64C151.673 22.7067 151.713 22.8067 151.7 22.94C151.633 23.8333 151.24 24.6 150.52 25.24C149.813 25.88 148.847 26.2 147.62 26.2ZM156.477 14.5C156.131 14.82 155.664 14.98 155.077 14.98C154.491 14.98 154.011 14.82 153.637 14.5C153.277 14.1667 153.097 13.74 153.097 13.22C153.097 12.7133 153.277 12.3 153.637 11.98C154.011 11.6467 154.491 11.48 155.077 11.48C155.664 11.48 156.131 11.6467 156.477 11.98C156.837 12.3 157.017 12.7133 157.017 13.22C157.017 13.74 156.837 14.1667 156.477 14.5ZM153.257 26C152.964 26 152.817 25.8867 152.817 25.66V25.58C152.817 25.4467 152.944 25.24 153.197 24.96C153.451 24.68 153.577 24.38 153.577 24.06V19.54C153.577 19.2067 153.451 18.8933 153.197 18.6C152.944 18.3067 152.817 18.1067 152.817 18V17.94C152.817 17.8067 152.957 17.6667 153.237 17.52L155.737 16.28C155.991 16.1733 156.191 16.1667 156.337 16.26C156.484 16.34 156.557 16.48 156.557 16.68V24.06C156.557 24.38 156.697 24.68 156.977 24.96C157.257 25.24 157.397 25.4467 157.397 25.58V25.66C157.397 25.8867 157.244 26 156.937 26H153.257ZM164.439 16.2C165.692 16.2 166.786 16.6333 167.719 17.5C168.652 18.3667 169.119 19.5467 169.119 21.04C169.119 22.5467 168.659 23.7867 167.739 24.76C166.832 25.72 165.739 26.2 164.459 26.2C163.526 26.2 162.746 25.94 162.119 25.42V28.4C162.119 28.72 162.259 29.02 162.539 29.3C162.819 29.58 162.959 29.7867 162.959 29.92V30C162.959 30.2267 162.806 30.34 162.499 30.34H158.879C158.572 30.34 158.419 30.2267 158.419 30V29.92C158.419 29.7867 158.546 29.58 158.799 29.3C159.066 29.02 159.199 28.72 159.199 28.4V19.4C159.199 19.1067 159.046 18.84 158.739 18.6C158.432 18.3467 158.279 18.1467 158.279 18V17.9C158.279 17.7133 158.412 17.5533 158.679 17.42L160.919 16.32C161.426 16.0667 161.679 16.1867 161.679 16.68L161.659 17.52C162.219 16.64 163.146 16.2 164.439 16.2ZM164.159 25.34C164.799 25.34 165.292 25.0733 165.639 24.54C165.999 24.0067 166.179 23.24 166.179 22.24C166.179 20.88 165.959 19.68 165.519 18.64C165.079 17.5867 164.486 17.06 163.739 17.06C163.326 17.06 162.966 17.2133 162.659 17.52C162.352 17.8133 162.172 18.2 162.119 18.68V22.5C162.119 23.2733 162.326 23.94 162.739 24.5C163.152 25.06 163.626 25.34 164.159 25.34ZM178.417 22.96C178.537 22.8 178.684 22.7467 178.857 22.8C179.03 22.8533 179.11 22.98 179.097 23.18C179.03 23.8733 178.63 24.5533 177.897 25.22C177.164 25.8733 176.21 26.2 175.037 26.2C173.624 26.2 172.464 25.7333 171.557 24.8C170.65 23.8667 170.197 22.64 170.197 21.12C170.197 19.6933 170.67 18.52 171.617 17.6C172.564 16.6667 173.704 16.2 175.037 16.2C176.25 16.2 177.184 16.4867 177.837 17.06C178.49 17.6333 178.817 18.2933 178.817 19.04C178.817 19.6533 178.524 20.0933 177.937 20.36L173.497 22.38C174.044 23.54 174.924 24.12 176.137 24.12C176.644 24.12 177.097 24.0133 177.497 23.8C177.91 23.5733 178.217 23.2933 178.417 22.96ZM174.677 17.08C174.157 17.08 173.744 17.3333 173.437 17.84C173.13 18.3333 172.977 18.9667 172.977 19.74C172.977 20.3933 173.044 20.9667 173.177 21.46L175.757 20.16C176.104 19.9867 176.277 19.6733 176.277 19.22C176.277 18.7667 176.13 18.3 175.837 17.82C175.544 17.3267 175.157 17.08 174.677 17.08ZM185.003 26C184.696 26 184.543 25.8867 184.543 25.66V25.6C184.543 25.4667 184.669 25.26 184.923 24.98C185.189 24.6867 185.323 24.3867 185.323 24.08V13.72C185.323 13.4 185.189 13.1 184.923 12.82C184.669 12.54 184.543 12.3333 184.543 12.2V12.12C184.543 11.9067 184.689 11.8 184.983 11.8H194.043C194.403 11.8 194.609 11.9933 194.663 12.38L195.143 14.72C195.209 15.0667 195.069 15.24 194.723 15.24H194.623C194.423 15.24 194.203 15.1267 193.963 14.9C193.736 14.66 193.529 14.4067 193.343 14.14C193.169 13.86 192.943 13.6067 192.663 13.38C192.383 13.14 192.096 13.02 191.803 13.02H189.163C188.643 13.02 188.383 13.3 188.383 13.86V18.74H191.063C191.249 18.74 191.423 18.6667 191.583 18.52C191.756 18.36 191.889 18.1867 191.983 18C192.076 17.8133 192.183 17.6467 192.303 17.5C192.423 17.34 192.543 17.26 192.663 17.26H192.823C193.049 17.26 193.163 17.4067 193.163 17.7V20.92C193.163 21.2 193.049 21.34 192.823 21.34H192.663C192.543 21.34 192.423 21.2667 192.303 21.12C192.183 20.9733 192.076 20.8133 191.983 20.64C191.889 20.4667 191.756 20.3067 191.583 20.16C191.423 20.0133 191.249 19.94 191.063 19.94H188.383V24.08C188.383 24.3867 188.523 24.6867 188.803 24.98C189.096 25.26 189.243 25.4667 189.243 25.6V25.66C189.243 25.8867 189.083 26 188.763 26H185.003ZM199.524 14.5C199.178 14.82 198.711 14.98 198.124 14.98C197.538 14.98 197.058 14.82 196.684 14.5C196.324 14.1667 196.144 13.74 196.144 13.22C196.144 12.7133 196.324 12.3 196.684 11.98C197.058 11.6467 197.538 11.48 198.124 11.48C198.711 11.48 199.178 11.6467 199.524 11.98C199.884 12.3 200.064 12.7133 200.064 13.22C200.064 13.74 199.884 14.1667 199.524 14.5ZM196.304 26C196.011 26 195.864 25.8867 195.864 25.66V25.58C195.864 25.4467 195.991 25.24 196.244 24.96C196.498 24.68 196.624 24.38 196.624 24.06V19.54C196.624 19.2067 196.498 18.8933 196.244 18.6C195.991 18.3067 195.864 18.1067 195.864 18V17.94C195.864 17.8067 196.004 17.6667 196.284 17.52L198.784 16.28C199.038 16.1733 199.238 16.1667 199.384 16.26C199.531 16.34 199.604 16.48 199.604 16.68V24.06C199.604 24.38 199.744 24.68 200.024 24.96C200.304 25.24 200.444 25.4467 200.444 25.58V25.66C200.444 25.8867 200.291 26 199.984 26H196.304ZM211.966 24.06C211.993 24.38 212.119 24.68 212.346 24.96C212.573 25.24 212.686 25.4533 212.686 25.6V25.68C212.686 25.9067 212.533 26.02 212.226 26.02H208.766C208.459 26.02 208.306 25.9067 208.306 25.68V25.6C208.306 25.4667 208.426 25.26 208.666 24.98C208.919 24.7 209.039 24.3933 209.026 24.06L208.826 20.36C208.733 18.3467 208.153 17.34 207.086 17.34C206.553 17.34 206.133 17.54 205.826 17.94C205.533 18.34 205.386 18.8733 205.386 19.54V24.08C205.386 24.4 205.526 24.7 205.806 24.98C206.099 25.26 206.246 25.4667 206.246 25.6V25.68C206.246 25.9067 206.093 26.02 205.786 26.02H202.066C201.759 26.02 201.606 25.9067 201.606 25.68V25.6C201.606 25.4667 201.746 25.26 202.026 24.98C202.319 24.7 202.466 24.4 202.466 24.08V19.42C202.466 19.22 202.413 19.04 202.306 18.88C202.213 18.72 202.099 18.6067 201.966 18.54C201.846 18.46 201.733 18.3667 201.626 18.26C201.533 18.1533 201.486 18.0467 201.486 17.94V17.86C201.486 17.7133 201.619 17.5733 201.886 17.44L204.266 16.28C204.493 16.1733 204.659 16.1667 204.766 16.26C204.886 16.34 204.946 16.4867 204.946 16.7V17.82C205.519 16.74 206.506 16.2 207.906 16.2C208.919 16.2 209.779 16.54 210.486 17.22C211.206 17.9 211.619 18.98 211.726 20.46L211.966 24.06ZM223.397 24.08C223.397 24.3867 223.53 24.6867 223.797 24.98C224.064 25.26 224.197 25.4667 224.197 25.6V25.66C224.197 25.8867 224.064 26 223.797 26H221.317C221.01 26 220.857 25.8533 220.857 25.56L220.817 25.12C220.204 25.84 219.337 26.2 218.217 26.2C216.924 26.2 215.817 25.7533 214.897 24.86C213.977 23.9533 213.517 22.7267 213.517 21.18C213.517 19.7267 213.977 18.5333 214.897 17.6C215.817 16.6667 216.93 16.2 218.237 16.2C219.17 16.2 219.95 16.46 220.577 16.98V13.78C220.577 13.5133 220.49 13.2933 220.317 13.12C220.157 12.9467 219.99 12.8 219.817 12.68C219.657 12.56 219.577 12.4333 219.577 12.3V12.24C219.577 12.0133 219.717 11.86 219.997 11.78L222.617 10.98C223.137 10.8067 223.397 10.94 223.397 11.38V24.08ZM218.877 25.34C219.33 25.34 219.724 25.1533 220.057 24.78C220.404 24.3933 220.577 23.8667 220.577 23.2V19.68C220.577 19.0267 220.357 18.4267 219.917 17.88C219.477 17.3333 218.97 17.06 218.397 17.06C217.784 17.06 217.297 17.32 216.937 17.84C216.577 18.3467 216.39 19.0667 216.377 20C216.35 20.76 216.424 21.54 216.597 22.34C216.784 23.14 217.077 23.84 217.477 24.44C217.89 25.0267 218.357 25.3267 218.877 25.34ZM233.397 22.96C233.517 22.8 233.664 22.7467 233.837 22.8C234.011 22.8533 234.091 22.98 234.077 23.18C234.011 23.8733 233.611 24.5533 232.877 25.22C232.144 25.8733 231.191 26.2 230.017 26.2C228.604 26.2 227.444 25.7333 226.537 24.8C225.631 23.8667 225.177 22.64 225.177 21.12C225.177 19.6933 225.651 18.52 226.597 17.6C227.544 16.6667 228.684 16.2 230.017 16.2C231.231 16.2 232.164 16.4867 232.817 17.06C233.471 17.6333 233.797 18.2933 233.797 19.04C233.797 19.6533 233.504 20.0933 232.917 20.36L228.477 22.38C229.024 23.54 229.904 24.12 231.117 24.12C231.624 24.12 232.077 24.0133 232.477 23.8C232.891 23.5733 233.197 23.2933 233.397 22.96ZM229.657 17.08C229.137 17.08 228.724 17.3333 228.417 17.84C228.111 18.3333 227.957 18.9667 227.957 19.74C227.957 20.3933 228.024 20.9667 228.157 21.46L230.737 20.16C231.084 19.9867 231.257 19.6733 231.257 19.22C231.257 18.7667 231.111 18.3 230.817 17.82C230.524 17.3267 230.137 17.08 229.657 17.08ZM241.202 16.2C241.775 16.2 242.222 16.3733 242.542 16.72C242.875 17.0533 243.042 17.4867 243.042 18.02C243.042 19.0733 242.615 19.6 241.762 19.6C241.415 19.6 241.142 19.5133 240.942 19.34C240.755 19.1533 240.642 18.9533 240.602 18.74C240.562 18.5267 240.482 18.3333 240.362 18.16C240.242 17.9733 240.062 17.88 239.822 17.88C239.462 17.88 239.195 18.0933 239.022 18.52C238.848 18.9467 238.762 19.4667 238.762 20.08V24.08C238.762 24.32 238.842 24.5333 239.002 24.72C239.175 24.8933 239.342 25.0467 239.502 25.18C239.675 25.3133 239.762 25.4467 239.762 25.58V25.66C239.762 25.8867 239.615 26 239.322 26H235.622C235.315 26 235.162 25.8867 235.162 25.66V25.58C235.162 25.4467 235.288 25.24 235.542 24.96C235.808 24.68 235.942 24.3867 235.942 24.08V19.4C235.942 19.08 235.788 18.7933 235.482 18.54C235.175 18.2867 235.022 18.0933 235.022 17.96V17.88C235.022 17.6933 235.162 17.5333 235.442 17.4L237.842 16.28C238.268 16.08 238.482 16.2133 238.482 16.68V18.18C238.935 16.86 239.842 16.2 241.202 16.2Z" fill="#163A34"/>
</svg>
