<svg width="768" height="665" viewBox="0 0 768 665" fill="none" xmlns="http://www.w3.org/2000/svg">
<path opacity="0.4" d="M-41.2683 650.331C-69.0355 590.306 -97.0198 525.249 -89.7956 457.459C-80.9168 373.997 -22.182 321.542 60.1955 313.985C181.68 302.853 291.02 382.789 408.746 400.419C653.385 437.072 789.396 232.231 808.871 12.5351C810.07 -0.981284 789.12 -4.29633 787.913 9.32576C775.824 145.769 725.492 292.162 594.25 356.445C455.381 424.453 319.787 349.201 186.332 309.155C104.025 284.451 -0.834568 279.101 -64.8327 347.453C-147.239 435.463 -104.89 563.605 -60.9359 658.269C-55.1947 670.613 -35.5309 662.728 -41.2683 650.331Z" fill="#697DDB"/>
</svg>
